<?xml version="1.0" encoding="utf-8"?>
<!-- Generator: Adobe Illustrator 19.0.0, SVG Export Plug-In . SVG Version: 6.00 Build 0)  -->
<svg version="1.1" xmlns="http://www.w3.org/2000/svg" xmlns:xlink="http://www.w3.org/1999/xlink" x="0px" y="0px"
	 viewBox="0 0 400 400" style="enable-background:new 0 0 400 400;" xml:space="preserve">
<style type="text/css">
	.st0{fill:#754C24;}
	.st1{fill:#A88F87;}
	.st2{fill:none;stroke:#754C24;stroke-width:3;stroke-miterlimit:10;}
	.st3{fill:#844F28;}
	.st4{fill:none;stroke:#8C6239;stroke-width:2;stroke-miterlimit:10;}
	.st5{fill:#534741;}
</style>
<g id="Layer_2">
</g>
<g id="Layer_1">
	<g id="Harness_2_">
		<path id="XMLID_1_" class="st0" d="M211.7,161.3h-18.4c-0.3,0-0.6-0.3-0.6-0.6v-0.2c0-0.3,0.3-0.6,0.6-0.6h18.4
			c0.3,0,0.6,0.3,0.6,0.6v0.2C212.3,161.1,212.1,161.3,211.7,161.3z"/>
		<path id="Harness_1_" class="st0" d="M196.8,159.8v-3c0-0.4,0.4-0.8,0.8-0.8h0c0.4,0,0.8,0.4,0.8,0.8v3c0,0.4-0.4,0.8-0.8,0.8h0
			C197.2,160.6,196.8,160.3,196.8,159.8z"/>
		<path id="Harness" class="st0" d="M206.5,159.8v-3c0-0.4,0.4-0.8,0.8-0.8h0c0.4,0,0.8,0.4,0.8,0.8v3c0,0.4-0.4,0.8-0.8,0.8h0
			C206.9,160.6,206.5,160.3,206.5,159.8z"/>
	</g>
	<g id="Skirt">
		<path id="XMLID_3_" class="st1" d="M191.8,202.5c7.1,0,14.3,0,21.4,0c-0.3-5.2-0.6-10.5-0.9-15.7h-19.7
			C192.4,192,192.1,197.2,191.8,202.5z"/>
		<rect id="XMLID_4_" x="192.6" y="188.5" class="st0" width="19.9" height="1.1"/>
		<path id="XMLID_5_" class="st0" d="M192.9,202.3v-13.2h1.3v13.2c0,0.5-0.4,0.8-0.7,0.8C193.2,203.1,192.9,202.7,192.9,202.3z"/>
		<path id="XMLID_19_" class="st0" d="M195.8,202.5v-13.2h1.3v13.2c0,0.5-0.4,0.8-0.7,0.8C196,203.3,195.7,202.9,195.8,202.5z"/>
		<path id="XMLID_20_" class="st0" d="M210.7,202.7v-13.2h1.3v13.2c0,0.5-0.4,0.8-0.7,0.8C211,203.5,210.7,203.1,210.7,202.7z"/>
		<path id="XMLID_21_" class="st0" d="M207.6,202.3v-13.2h1.3v13.2c0,0.5-0.4,0.8-0.7,0.8C207.8,203.1,207.5,202.7,207.6,202.3z"/>
		<path id="XMLID_22_" class="st0" d="M204,202.7v-13.2h1.3v13.2c0,0.5-0.4,0.8-0.7,0.8C204.3,203.5,204,203.1,204,202.7z"/>
		<path id="XMLID_25_" class="st0" d="M199.6,202.5v-13.2h1.3v13.2c0,0.5-0.4,0.8-0.7,0.8C199.9,203.3,199.6,202.9,199.6,202.5z"/>
	</g>
	<g id="Left_Shoe">
		<path id="XMLID_26_" class="st0" d="M196.8,227L196.8,227c-0.9,0-1.5-0.7-1.5-1.5V213c0-0.8,0.7-1.5,1.5-1.5h0
			c0.8,0,1.5,0.7,1.5,1.5v12.6C198.3,226.4,197.7,227,196.8,227z"/>
		<path id="XMLID_28_" class="st0" d="M199.5,231.9h-5.4c-0.7,0-1.2-0.5-1.2-1c0-0.6,0.5-1,1.2-1h5.4c0.7,0,1.2,0.5,1.2,1
			C200.7,231.5,200.2,231.9,199.5,231.9z"/>
		<path id="XMLID_31_" class="st2" d="M200.3,230.8c0.1-0.3,0.4-1.4-0.2-2.7c-0.6-1.3-1.8-1.8-2.2-2"/>
		<path id="XMLID_32_" class="st2" d="M195.7,226.1c-0.3,0.1-1.3,0.4-2,1.3c-1.1,1.5-0.3,3.4-0.3,3.5"/>
		<path id="XMLID_30_" class="st3" d="M193.2,214.3h7.2c0.2,0,0.3-0.1,0.3-0.3v-0.1c0-0.2-0.1-0.3-0.3-0.3h-7.2
			c-0.2,0-0.3,0.1-0.3,0.3v0.1C192.9,214.2,193,214.3,193.2,214.3z"/>
		<path id="XMLID_33_" class="st3" d="M193.2,218.2h7.2c0.2,0,0.3-0.1,0.3-0.3v-0.1c0-0.2-0.1-0.3-0.3-0.3h-7.2
			c-0.2,0-0.3,0.1-0.3,0.3v0.1C192.9,218.1,193,218.2,193.2,218.2z"/>
		<path id="XMLID_34_" class="st3" d="M193.2,221.7h7.2c0.2,0,0.3-0.1,0.3-0.3v-0.1c0-0.2-0.1-0.3-0.3-0.3h-7.2
			c-0.2,0-0.3,0.1-0.3,0.3v0.1C192.9,221.5,193,221.7,193.2,221.7z"/>
	</g>
	<g id="Right_Shoe">
		<path id="XMLID_41_" class="st0" d="M208.3,227L208.3,227c-0.9,0-1.5-0.7-1.5-1.5V213c0-0.8,0.7-1.5,1.5-1.5h0
			c0.8,0,1.5,0.7,1.5,1.5v12.6C209.8,226.4,209.1,227,208.3,227z"/>
		<path id="XMLID_40_" class="st0" d="M211,231.9h-5.4c-0.7,0-1.2-0.5-1.2-1c0-0.6,0.5-1,1.2-1h5.4c0.7,0,1.2,0.5,1.2,1
			C212.2,231.5,211.7,231.9,211,231.9z"/>
		<path id="XMLID_39_" class="st2" d="M211.8,230.8c0.1-0.3,0.4-1.4-0.2-2.7c-0.6-1.3-1.8-1.8-2.2-2"/>
		<path id="XMLID_38_" class="st2" d="M207.2,226.1c-0.3,0.1-1.3,0.4-2,1.3c-1.1,1.5-0.3,3.4-0.3,3.5"/>
		<path id="XMLID_37_" class="st3" d="M204.6,214.3h7.2c0.2,0,0.3-0.1,0.3-0.3v-0.1c0-0.2-0.1-0.3-0.3-0.3h-7.2
			c-0.2,0-0.3,0.1-0.3,0.3v0.1C204.3,214.2,204.4,214.3,204.6,214.3z"/>
		<path id="XMLID_36_" class="st3" d="M204.6,218.2h7.2c0.2,0,0.3-0.1,0.3-0.3v-0.1c0-0.2-0.1-0.3-0.3-0.3h-7.2
			c-0.2,0-0.3,0.1-0.3,0.3v0.1C204.3,218.1,204.4,218.2,204.6,218.2z"/>
		<path id="XMLID_35_" class="st3" d="M204.6,221.7h7.2c0.2,0,0.3-0.1,0.3-0.3v-0.1c0-0.2-0.1-0.3-0.3-0.3h-7.2
			c-0.2,0-0.3,0.1-0.3,0.3v0.1C204.3,221.5,204.4,221.7,204.6,221.7z"/>
	</g>
	<g id="Trident">
		<line id="XMLID_44_" class="st4" x1="223.5" y1="156.6" x2="212.6" y2="213.2"/>
		<g id="XMLID_47_">
			<g id="XMLID_45_">
				<path id="XMLID_14_" class="st5" d="M230.4,146.7c0.2,1.5,0.3,2.9,0.4,4.4c0,0.7,0.1,1.5,0.1,2.2c0,0.7,0.1,1.5,0,2.2l0,0.5
					l-0.5,0.3c-1,0.6-2.1,1-3.3,1.2c-1.1,0.2-2.3,0.3-3.5,0.1l-0.4-0.1c-0.2,0-0.3-0.1-0.4-0.1c-0.2,0-0.6-0.1-0.9-0.2
					c-0.6-0.2-1.1-0.4-1.6-0.7c-1-0.5-2-1.2-2.8-2.1l-0.4-0.4l0.2-0.4c1-2.1,2.1-4.3,3.3-6.3c-0.5,2.3-1.1,4.6-1.9,6.9l-0.2-0.8
					c0.7,0.6,1.6,1.2,2.5,1.5c0.5,0.2,0.9,0.3,1.4,0.5c0.2,0.1,0.4,0.1,0.7,0.2c0.1,0,0.3,0.1,0.4,0.1l0.4,0c1,0.1,1.9,0.1,2.9,0
					c1-0.2,1.9-0.4,2.8-0.8l-0.5,0.7c0-0.7,0.1-1.5,0.2-2.2c0.1-0.7,0.2-1.5,0.3-2.2C229.8,149.6,230.1,148.2,230.4,146.7z"/>
			</g>
			<g id="XMLID_46_">
				<path id="XMLID_12_" class="st5" d="M225.9,145.9c0,0,0.1,1.1,0,2.6c0,0.8-0.1,1.7-0.3,2.6c-0.1,1-0.3,2-0.5,3
					c-0.2,1-0.5,2-0.8,2.9c-0.3,0.9-0.6,1.8-0.9,2.5c-0.6,1.5-1.1,2.4-1.1,2.4s-0.1-1.1,0-2.6c0-0.8,0.1-1.7,0.3-2.6
					c0.1-1,0.3-2,0.5-3c0.2-1,0.5-2,0.8-2.9c0.3-0.9,0.6-1.8,0.9-2.5C225.4,146.8,225.9,145.9,225.9,145.9z"/>
			</g>
		</g>
	</g>
</g>
</svg>
