<?xml version="1.0" encoding="utf-8"?>
<!-- Generator: Adobe Illustrator 19.0.0, SVG Export Plug-In . SVG Version: 6.00 Build 0)  -->
<svg version="1.1" xmlns="http://www.w3.org/2000/svg" xmlns:xlink="http://www.w3.org/1999/xlink" x="0px" y="0px"
	 viewBox="0 0 400 400" style="enable-background:new 0 0 400 400;" xml:space="preserve">
<style type="text/css">
	.st0{fill:#F1C27D;}
	.st1{fill:#424242;}
</style>
<g id="Layer_1">
</g>
<g id="Layer_2">
	<path id="Arm_L" class="st0" d="M188.8,195.5h-1.2c-1.3,0-2.4-1.1-2.4-2.4v-34.7c0-1.3,1.1-2.4,2.4-2.4h1.2c1.3,0,2.4,1.1,2.4,2.4
		v34.7C191.2,194.5,190.1,195.5,188.8,195.5z"/>
	<path id="Body" class="st0" d="M204.1,191.3h-3.8c-4.2,0-7.6-3.4-7.6-7.6v-20.1c0-4.2,3.4-7.6,7.6-7.6h3.8c4.2,0,7.6,3.4,7.6,7.6
		v20.1C211.7,187.9,208.3,191.3,204.1,191.3z"/>
	<path id="Arm_R" class="st0" d="M216.5,195.5h-1.2c-1.3,0-2.4-1.1-2.4-2.4v-34.7c0-1.3,1.1-2.4,2.4-2.4h1.2c1.3,0,2.4,1.1,2.4,2.4
		v34.7C218.9,194.5,217.8,195.5,216.5,195.5z"/>
	<path id="Leg_L" class="st0" d="M197.4,231.9h-1.5c-1.7,0-3.1-1.4-3.1-3.1v-33.3c0-1.7,1.4-3.1,3.1-3.1h1.5c1.7,0,3.1,1.4,3.1,3.1
		v33.3C200.5,230.5,199.1,231.9,197.4,231.9z"/>
	<path id="Leg_R" class="st0" d="M208.6,231.9H207c-1.7,0-3.1-1.4-3.1-3.1v-33.3c0-1.7,1.4-3.1,3.1-3.1h1.5c1.7,0,3.1,1.4,3.1,3.1
		v33.3C211.7,230.5,210.3,231.9,208.6,231.9z"/>
	<ellipse id="Head" class="st0" cx="202.2" cy="147.4" rx="9.4" ry="7.7"/>
	<g id="Eyes">
		<ellipse id="XMLID_42_" class="st1" cx="197.8" cy="145.8" rx="1" ry="0.5"/>
		<ellipse id="XMLID_43_" class="st1" cx="206.6" cy="145.8" rx="1" ry="0.5"/>
	</g>
</g>
</svg>
